<?xml version="1.0" encoding="UTF-8"?>
<svg id="Ray" xmlns="http://www.w3.org/2000/svg" version="1.1" xmlns:xlink="http://www.w3.org/1999/xlink" viewBox="0 0 601.72 458.67">
  <!-- Generator: Adobe Illustrator 30.2.1, SVG Export Plug-In . SVG Version: 2.1.1 Build 1)  -->
  <defs>
    <style>
      .st0 {
        fill: url(#Gradiente_sem_nome_384);
      }

      .st1 {
        fill: url(#Gradiente_sem_nome_341);
      }

      .st2 {
        fill: #fff;
      }

      .st3 {
        fill: url(#Gradiente_sem_nome_458);
      }
    </style>
    <linearGradient id="Gradiente_sem_nome_458" data-name="Gradiente sem nome 458" x1="365.71" y1="32.15" x2="215.51" y2="292.31" gradientUnits="userSpaceOnUse">
      <stop offset="0" stop-color="#bdf854"/>
      <stop offset=".35" stop-color="#91da70"/>
      <stop offset=".76" stop-color="#079d4f"/>
      <stop offset="1" stop-color="#004039"/>
    </linearGradient>
    <linearGradient id="Gradiente_sem_nome_341" data-name="Gradiente sem nome 341" x1="447.18" y1="122.06" x2="343.77" y2="301.16" gradientUnits="userSpaceOnUse">
      <stop offset="0" stop-color="#bdf854"/>
      <stop offset=".45" stop-color="#0bc47e"/>
      <stop offset=".76" stop-color="#079d4f"/>
      <stop offset="1" stop-color="#004039"/>
    </linearGradient>
    <linearGradient id="Gradiente_sem_nome_384" data-name="Gradiente sem nome 384" x1="300.03" y1="48.32" x2="162.59" y2="286.38" gradientUnits="userSpaceOnUse">
      <stop offset="0" stop-color="#bdf854"/>
      <stop offset=".45" stop-color="#0bc488"/>
      <stop offset=".76" stop-color="#079d4f"/>
      <stop offset="1" stop-color="#004039"/>
    </linearGradient>
  </defs>
  <g>
    <path class="st3" d="M393.89,165.33h-28.11c20.03-23.92,55.46-66.21,75.16-89.74h-84.88c-4.64,8.25-60.03,106.32-66.33,117.48l-30.33-76.92h-47.27c11.5,29.17,34.68,87.95,46.2,117.14,20.78-18.28,56.39-49.61,77.49-68.17-20.49,41.72-47.78,97.35-68.03,138.59,39.21-43.02,86.75-95.21,126.1-138.38Z"/>
    <path class="st1" d="M434.16,121.13c-1.83-3.52-3.86-6.88-6.05-10.08l-11.59,11.59c2.3,3.48,4.35,7.2,6.13,11.12,4.84,10.65,7.67,22.76,7.67,35.61,0,42.15-32.22,76.38-64.2,76.88h0s-25.23.01-25.23.01l-16.89,16.89h41.96c40.5,0,79.92-41.99,79.92-93.78,0-17.64-4.36-34.14-11.72-48.24Z"/>
    <path class="st0" d="M249.64,246.26h-14.04c-31.98-.51-64.2-34.74-64.2-76.89,0-29.53,14.94-55.17,34.88-68.05,8.61-5.57,18.16-8.75,27.84-8.83h0s96.27-.01,96.27-.01l16.88-16.89h-113.31c-11.83,0-23.42,3.58-33.89,9.96-25.38,15.41-44.23,47.16-44.23,83.82,0,47.36,32.97,86.53,69.58,92.87,3.42.6,6.88.91,10.34.91h30.77l-16.89-16.89Z"/>
  </g>
  <g>
    <path class="st2" d="M140.21,361.93h-47.62v-9.81l30.36-35.78h-28.93v-10.83h45.5v9.73l-30.19,35.86h30.87v10.83Z"/>
    <path class="st2" d="M148.33,333.93c.76-9.39,6.6-13.96,18.1-13.96,6.17,0,10.91,1.44,14.12,4.23,2.96,2.62,4.06,5.92,4.06,11.93v18.78c0,4.4.17,4.99,1.52,7.02h-12.26c-.51-1.44-.51-1.69-.93-3.21-3.98,3.3-6.85,4.31-11.67,4.31-9.05,0-15.05-5.08-15.05-12.77s4.82-11.67,16.24-13.53l6.51-1.1c2.71-.42,3.64-1.1,3.64-2.79,0-2.28-2.37-3.72-6.26-3.72-4.4,0-6.77,1.52-7.27,4.82h-10.74ZM172.94,342.48c-1.27.51-2.37.85-4.4,1.27l-4.31.93c-4.31,1.01-6.17,2.45-6.17,4.91,0,2.71,2.28,4.31,6.09,4.31s6.85-1.69,8.8-5.16v-6.26Z"/>
    <path class="st2" d="M207.03,321.08l-.34,4.82c3.47-4.31,6.43-5.92,11.5-5.92,10.74,0,18.02,8.63,18.02,21.4s-7.19,21.65-17.93,21.65c-4.48,0-7.61-1.27-11-4.4v16.24h-12.01v-53.79h11.76ZM206.86,341.46c0,7.27,3.38,11.84,8.8,11.84s8.71-4.57,8.71-11.67-3.3-11.93-8.8-11.93-8.71,4.57-8.71,11.76Z"/>
    <path class="st2" d="M258.02,361.93l-18.61-56.41h13.62l7.44,25.71c0,.08.59,2.2,1.1,4.06.42,1.69.93,3.3,1.35,4.91l1.69,6.26c1.52-6.26,1.95-7.95,3.97-15.31l7.53-25.63h13.28l-18.86,56.41h-12.52Z"/>
    <path class="st2" d="M302.09,345.01c.76,5.58,4.06,8.63,9.22,8.63,3.21,0,5.5-1.1,7.1-3.64h12.18c-2.28,7.95-9.9,13.03-19.62,13.03-12.6,0-20.98-8.63-20.98-21.48s8.54-21.57,20.89-21.57c8.63,0,15.14,4.31,18.18,12.01,1.44,3.55,2.03,7.36,2.03,13.03h-29.01ZM318.75,336.56c-.51-4.82-3.3-7.44-7.95-7.44s-7.7,2.62-8.63,7.44h16.58Z"/>
    <path class="st2" d="M351.4,321.08v3.97c4.4-4.06,6.94-5.16,11.17-5.16,8.88,0,14.29,5.92,14.29,15.56v26.47h-12.01v-22.24c0-4.14-.25-5.75-1.27-7.27-1.01-1.52-2.79-2.37-4.91-2.37s-3.89.76-5.16,2.2c-1.35,1.52-1.78,3.21-1.78,6.77v22.92h-12.01v-40.85h11.67Z"/>
    <path class="st2" d="M426.08,361.93h-11.5v-4.4c-3.04,3.98-6.26,5.5-11.25,5.5-10.74,0-17.93-8.54-17.93-21.48s7.27-21.65,18.27-21.65c4.4,0,7.53,1.27,10.4,4.23v-18.61h12.01v56.41ZM397.24,341.46c0,7.19,3.38,11.84,8.63,11.84s8.63-4.74,8.63-11.67c0-7.27-3.38-12.01-8.63-12.01s-8.63,4.65-8.63,11.84Z"/>
    <path class="st2" d="M446.72,345.01c.76,5.58,4.06,8.63,9.22,8.63,3.21,0,5.5-1.1,7.11-3.64h12.18c-2.28,7.95-9.9,13.03-19.62,13.03-12.6,0-20.98-8.63-20.98-21.48s8.54-21.57,20.89-21.57c8.63,0,15.14,4.31,18.18,12.01,1.44,3.55,2.03,7.36,2.03,13.03h-29.01ZM463.38,336.56c-.51-4.82-3.3-7.44-7.95-7.44s-7.7,2.62-8.63,7.44h16.58Z"/>
    <path class="st2" d="M496.11,321.08l-.34,7.27c2.37-6.6,5.41-8.46,14.12-8.37v11.33c-1.44-.17-2.03-.17-3.04-.17-4.14,0-7.53,1.86-8.88,4.91-1.18,2.71-1.61,6.51-1.61,14.38v11.5h-12.01v-40.85h11.76Z"/>
  </g>
</svg>