<?xml version="1.0" encoding="UTF-8"?>
<svg id="Ray" xmlns="http://www.w3.org/2000/svg" version="1.1" xmlns:xlink="http://www.w3.org/1999/xlink" viewBox="0 0 601.72 458.67">
  <!-- Generator: Adobe Illustrator 30.2.1, SVG Export Plug-In . SVG Version: 2.1.1 Build 1)  -->
  <defs>
    <style>
      .st0 {
        fill: url(#Gradiente_sem_nome_384);
      }

      .st1 {
        fill: url(#Gradiente_sem_nome_341);
      }

      .st2 {
        fill: url(#Gradiente_sem_nome_458);
      }
    </style>
    <linearGradient id="Gradiente_sem_nome_458" data-name="Gradiente sem nome 458" x1="365.71" y1="76.75" x2="215.51" y2="336.9" gradientUnits="userSpaceOnUse">
      <stop offset="0" stop-color="#bdf854"/>
      <stop offset=".35" stop-color="#91da70"/>
      <stop offset=".76" stop-color="#079d4f"/>
      <stop offset="1" stop-color="#004039"/>
    </linearGradient>
    <linearGradient id="Gradiente_sem_nome_341" data-name="Gradiente sem nome 341" x1="447.18" y1="166.65" x2="343.77" y2="345.75" gradientUnits="userSpaceOnUse">
      <stop offset="0" stop-color="#bdf854"/>
      <stop offset=".45" stop-color="#0bc47e"/>
      <stop offset=".76" stop-color="#079d4f"/>
      <stop offset="1" stop-color="#004039"/>
    </linearGradient>
    <linearGradient id="Gradiente_sem_nome_384" data-name="Gradiente sem nome 384" x1="300.03" y1="92.91" x2="162.59" y2="330.97" gradientUnits="userSpaceOnUse">
      <stop offset="0" stop-color="#bdf854"/>
      <stop offset=".45" stop-color="#0bc488"/>
      <stop offset=".76" stop-color="#079d4f"/>
      <stop offset="1" stop-color="#004039"/>
    </linearGradient>
  </defs>
  <path class="st2" d="M393.89,209.92h-28.11c20.03-23.92,55.46-66.21,75.16-89.74h-84.88c-4.64,8.25-60.03,106.32-66.33,117.48l-30.33-76.92h-47.27c11.5,29.17,34.68,87.95,46.2,117.14,20.78-18.28,56.39-49.61,77.49-68.17-20.49,41.72-47.78,97.35-68.03,138.59,39.21-43.02,86.75-95.21,126.1-138.38Z"/>
  <path class="st1" d="M434.16,165.72c-1.83-3.52-3.86-6.88-6.05-10.08l-11.59,11.59c2.3,3.48,4.35,7.2,6.13,11.12,4.84,10.65,7.67,22.76,7.67,35.61,0,42.15-32.22,76.38-64.2,76.88h0s-25.23.01-25.23.01l-16.89,16.89h41.96c40.5,0,79.92-41.99,79.92-93.78,0-17.64-4.36-34.14-11.72-48.24Z"/>
  <path class="st0" d="M249.64,290.85h-14.04c-31.98-.51-64.2-34.74-64.2-76.89,0-29.53,14.94-55.17,34.88-68.05,8.61-5.57,18.16-8.75,27.84-8.83h0s96.27-.01,96.27-.01l16.88-16.89h-113.31c-11.83,0-23.42,3.58-33.89,9.96-25.38,15.41-44.23,47.16-44.23,83.82,0,47.36,32.97,86.53,69.58,92.87,3.42.6,6.88.91,10.34.91h30.77l-16.89-16.89Z"/>
</svg>