<svg xmlns="http://www.w3.org/2000/svg" viewBox="0 0 256 256">
  <defs>
    <linearGradient id="bg" x1="28" y1="24" x2="220" y2="236" gradientUnits="userSpaceOnUse">
      <stop offset="0" stop-color="#22C55E"/>
      <stop offset="1" stop-color="#0B7A3A"/>
    </linearGradient>
    <linearGradient id="shine" x1="58" y1="36" x2="198" y2="160" gradientUnits="userSpaceOnUse">
      <stop offset="0" stop-color="#FFFFFF" stop-opacity="0.28"/>
      <stop offset="1" stop-color="#FFFFFF" stop-opacity="0"/>
    </linearGradient>
    <filter id="shadow" x="-20%" y="-20%" width="140%" height="160%">
      <feDropShadow dx="0" dy="8" stdDeviation="8" flood-color="#064E2B" flood-opacity="0.35"/>
    </filter>
  </defs>

  <rect width="256" height="256" rx="56" fill="url(#bg)"/>
  <rect x="18" y="18" width="220" height="220" rx="44" fill="url(#shine)"/>

  <g filter="url(#shadow)">
    <path d="M64 102c0-24 19-43 43-43h42c24 0 43 19 43 43v28c0 24-19 43-43 43h-24l-21 18c-6 5-16 1-16-7v-15c-14-6-24-20-24-36v-31z" fill="#FFFFFF"/>
    <path d="M103 90h53c4 0 6 5 3 8l-30 33h29c4 0 6 5 3 8l-38 28c-4 3-9-1-7-5l11-22h-25c-4 0-6-5-3-8l31-35h-24c-4 0-6-5-3-7z" fill="#0F6D35"/>
  </g>
</svg>